<svg xmlns="http://www.w3.org/2000/svg" xmlns:xlink="http://www.w3.org/1999/xlink" id="svg" version="1.1" width="400" height="508.28025477707007" viewBox="0, 0, 400,508.28025477707007"><g id="svgg"><path id="path0" d="M82.400 49.796 C 81.410 50.122,79.598 51.156,78.373 52.094 C 77.149 53.032,75.529 54.269,74.773 54.842 C 74.018 55.416,71.510 56.494,69.200 57.239 C 64.999 58.594,59.043 62.904,57.571 65.654 C 57.348 66.071,56.457 66.859,55.591 67.406 C 53.019 69.029,51.345 73.256,50.840 79.400 C 50.476 83.825,49.874 85.167,47.956 85.824 C 40.636 88.333,37.437 101.362,43.241 105.026 C 44.098 105.567,44.800 106.170,44.800 106.366 C 44.800 106.996,46.945 107.512,47.976 107.131 C 49.885 106.424,50.704 107.639,49.223 108.979 C 47.956 110.126,47.775 111.899,48.786 113.266 C 49.381 114.071,49.586 114.781,49.436 115.521 C 49.185 116.754,50.189 119.918,51.505 122.047 C 51.997 122.843,52.400 123.746,52.400 124.054 C 52.400 124.362,52.823 125.241,53.340 126.007 C 53.857 126.773,54.512 128.660,54.794 130.200 C 55.254 132.705,56.146 135.200,56.582 135.200 C 56.671 135.200,58.413 133.283,60.452 130.940 C 62.960 128.059,65.039 126.112,66.872 124.926 C 68.364 123.961,70.244 122.382,71.050 121.418 C 75.075 116.602,79.079 116.473,80.798 121.103 C 81.316 122.501,82.331 124.105,83.390 125.200 C 84.892 126.754,88.060 131.752,90.474 136.378 C 92.079 139.452,91.716 142.518,88.793 150.600 C 86.997 155.566,86.275 156.411,83.856 156.377 C 80.137 156.325,79.385 155.961,75.644 152.400 C 73.680 150.530,70.971 148.217,69.624 147.260 C 68.096 146.174,66.871 144.923,66.366 143.934 C 65.469 142.174,64.667 142.092,64.473 143.739 C 64.305 145.161,65.597 147.187,67.920 149.140 C 70.838 151.594,72.113 154.545,69.697 153.252 C 69.148 152.958,68.772 153.079,68.119 153.758 L 67.261 154.649 68.731 155.823 C 69.539 156.469,71.370 157.787,72.800 158.752 C 74.230 159.718,75.940 160.999,76.600 161.599 C 77.260 162.199,78.880 163.417,80.200 164.307 C 81.520 165.196,83.410 166.772,84.400 167.809 C 87.043 170.576,93.219 175.635,93.638 175.376 C 93.837 175.253,94.000 175.331,94.000 175.549 C 94.000 175.767,94.585 176.356,95.300 176.857 C 96.334 177.582,96.477 177.615,96.000 177.019 C 95.542 176.448,95.519 176.230,95.900 176.102 C 96.638 175.853,96.511 175.169,95.532 174.127 C 93.986 172.482,96.177 172.778,103.047 175.144 C 108.435 176.999,108.727 176.901,107.855 173.533 C 107.438 171.922,107.396 170.715,107.683 168.600 C 108.153 165.131,107.390 161.889,105.364 158.744 C 103.615 156.030,103.647 155.433,105.605 154.197 C 106.908 153.374,107.168 153.012,106.984 152.277 C 106.713 151.199,108.816 149.830,111.917 149.065 L 113.800 148.600 114.000 146.200 C 114.361 141.867,116.763 139.517,121.277 139.082 C 124.046 138.815,124.366 139.109,124.686 142.208 C 124.990 145.161,125.837 145.650,128.947 144.669 C 130.115 144.301,131.446 144.000,131.904 144.000 C 132.363 144.000,133.247 143.573,133.869 143.052 C 134.491 142.530,135.605 141.972,136.344 141.810 C 137.245 141.614,138.507 140.682,140.171 138.984 C 143.179 135.917,144.096 135.619,147.055 136.752 C 148.274 137.218,149.590 137.600,149.981 137.600 C 150.371 137.600,151.369 138.140,152.200 138.800 C 153.031 139.460,153.945 140.000,154.231 140.000 C 155.051 140.000,155.349 140.805,155.256 142.776 C 155.132 145.420,154.888 145.945,153.471 146.610 C 152.772 146.938,151.611 147.640,150.891 148.170 C 150.171 148.699,148.836 149.259,147.925 149.413 C 146.616 149.634,145.767 150.195,143.878 152.090 C 142.564 153.409,140.914 154.727,140.212 155.021 C 138.630 155.682,138.190 156.210,137.687 158.051 C 137.153 160.009,137.603 160.709,138.990 160.077 C 139.566 159.815,141.064 159.596,142.319 159.591 C 143.965 159.585,144.878 159.365,145.600 158.800 C 149.216 155.972,151.584 160.034,149.146 164.884 C 146.412 170.323,151.198 174.171,156.201 170.556 C 157.301 169.762,158.752 168.873,159.428 168.581 C 160.713 168.025,163.037 164.058,163.281 162.004 C 163.356 161.381,163.811 160.811,164.497 160.483 C 166.190 159.674,166.443 158.834,165.567 156.924 L 164.805 155.263 166.266 152.531 L 167.727 149.800 166.563 146.655 C 165.609 144.074,165.131 143.329,163.900 142.502 C 163.075 141.947,162.400 141.375,162.400 141.230 C 162.400 141.085,161.789 140.318,161.041 139.526 C 160.294 138.734,159.550 137.481,159.388 136.743 C 159.226 136.004,158.555 134.447,157.898 133.282 C 156.904 131.520,156.747 130.892,156.963 129.542 C 157.114 128.596,157.021 127.361,156.740 126.584 C 156.339 125.476,156.367 124.988,156.904 123.724 C 157.260 122.886,157.531 121.840,157.505 121.400 C 157.216 116.508,157.619 113.573,158.634 113.187 C 162.503 111.716,163.428 107.340,160.441 104.637 C 159.875 104.125,159.600 103.392,159.600 102.398 C 159.600 101.429,159.220 100.383,158.498 99.360 C 157.892 98.502,156.137 95.298,154.598 92.240 C 147.642 78.416,133.684 67.410,114.800 60.858 C 109.981 59.186,104.845 56.409,103.518 54.757 C 101.341 52.049,98.033 50.328,94.242 49.933 C 87.422 49.221,84.259 49.185,82.400 49.796 M153.749 71.811 C 153.882 72.158,153.641 72.715,153.192 73.100 C 151.608 74.456,152.500 77.132,155.703 80.637 C 158.304 83.483,158.800 83.454,158.800 80.454 C 158.800 78.714,159.007 77.845,159.600 77.091 C 161.750 74.358,159.109 71.211,154.657 71.202 C 153.796 71.201,153.572 71.351,153.749 71.811 M163.200 73.808 C 163.200 74.142,162.733 75.156,162.162 76.060 C 161.305 77.417,161.169 77.996,161.377 79.387 C 161.668 81.329,161.096 83.200,160.210 83.200 C 159.083 83.200,159.586 84.392,161.700 86.732 C 163.938 89.208,167.379 92.000,168.194 92.000 C 169.219 92.000,166.264 85.211,164.909 84.453 C 163.936 83.909,163.498 78.681,164.291 77.076 C 164.729 76.188,164.750 75.661,164.392 74.576 C 163.930 73.175,163.200 72.705,163.200 73.808 M115.119 76.232 C 115.206 76.844,114.118 78.133,111.014 81.093 C 103.518 88.243,102.129 94.432,109.069 89.762 C 113.682 86.657,115.530 85.854,118.132 85.826 C 122.404 85.779,122.436 86.973,118.311 92.453 C 113.557 98.767,111.891 103.946,114.700 103.674 C 118.268 103.330,113.664 109.358,108.000 112.448 C 101.831 115.813,97.392 115.580,94.120 111.720 C 92.866 110.239,92.814 110.220,91.520 110.755 C 85.692 113.163,83.554 109.252,87.324 103.082 C 88.372 101.368,89.908 98.578,90.736 96.882 C 93.807 90.601,103.098 79.883,107.345 77.722 C 112.249 75.228,114.903 74.719,115.119 76.232 M169.017 93.655 C 169.262 94.424,170.497 96.262,172.788 99.263 C 173.235 99.848,173.600 100.513,173.600 100.741 C 173.600 100.969,174.982 103.190,176.671 105.678 C 179.661 110.081,180.655 112.085,181.889 116.200 C 182.808 119.264,182.916 120.236,182.437 121.131 C 182.150 121.667,182.125 122.276,182.366 122.877 C 182.569 123.385,182.953 126.230,183.220 129.200 C 183.517 132.508,183.935 134.972,184.300 135.559 C 184.747 136.279,184.849 137.324,184.709 139.747 C 184.374 145.542,185.517 148.400,188.169 148.400 C 189.088 148.400,190.042 148.602,190.289 148.849 C 191.704 150.264,198.770 141.364,201.058 135.285 C 201.599 133.848,202.506 131.879,203.074 130.910 C 204.498 128.480,204.623 128.649,193.276 117.637 L 183.552 108.200 183.648 106.391 C 183.773 104.026,179.235 97.339,177.966 98.018 C 176.325 98.896,174.859 98.481,174.017 96.900 C 172.268 93.617,168.159 90.949,169.017 93.655 M187.091 104.289 C 187.801 104.377,189.061 104.379,189.891 104.292 C 190.721 104.205,190.140 104.133,188.600 104.131 C 187.060 104.129,186.381 104.200,187.091 104.289 M74.195 142.017 C 73.850 143.104,74.430 143.707,75.654 143.534 C 76.361 143.434,76.600 143.147,76.600 142.400 C 76.600 141.024,74.610 140.707,74.195 142.017 M116.880 145.280 C 116.302 145.858,116.234 146.950,116.798 146.601 C 117.370 146.248,118.090 144.800,117.694 144.800 C 117.510 144.800,117.144 145.016,116.880 145.280 M76.790 147.412 C 75.591 148.857,78.339 151.212,79.805 149.996 C 80.132 149.724,80.400 149.080,80.400 148.565 C 80.400 146.990,77.823 146.167,76.790 147.412 M56.400 151.193 C 56.400 152.522,57.355 153.416,59.192 153.808 C 60.403 154.065,60.519 154.026,60.085 153.503 C 59.811 153.172,59.686 152.642,59.807 152.325 C 60.090 151.588,58.916 150.561,57.500 150.308 C 56.522 150.133,56.400 150.231,56.400 151.193 M124.017 171.106 C 123.367 171.632,123.063 172.476,122.822 174.426 C 122.643 175.864,122.105 177.811,121.625 178.751 C 120.630 180.702,120.886 181.357,122.795 181.739 C 123.442 181.868,124.737 182.529,125.672 183.206 C 128.101 184.966,129.698 184.773,130.036 182.680 C 130.170 181.843,130.488 180.952,130.740 180.700 C 131.679 179.761,131.224 178.473,129.435 177.008 C 127.279 175.241,127.037 174.675,127.803 173.195 C 129.175 170.542,126.522 169.078,124.017 171.106 M166.494 244.100 C 162.251 245.461,161.882 250.803,166.031 250.799 C 170.114 250.794,172.692 245.573,169.361 244.055 C 168.224 243.537,168.252 243.537,166.494 244.100 M367.300 258.163 C 366.805 258.685,366.400 259.306,366.400 259.542 C 366.400 260.550,364.707 260.911,362.030 260.474 C 351.254 258.713,337.273 260.947,322.546 266.782 C 319.876 267.840,314.827 269.536,311.325 270.551 C 307.824 271.567,302.719 273.215,299.980 274.214 C 297.241 275.213,291.916 276.921,288.146 278.009 C 277.171 281.178,262.169 287.425,260.134 289.673 C 258.935 290.997,259.360 294.247,261.580 300.740 C 262.682 303.963,264.047 308.850,264.614 311.600 C 265.181 314.350,266.085 318.310,266.623 320.400 C 267.511 323.849,270.170 335.140,272.652 346.000 C 273.265 348.683,274.384 351.862,275.751 354.800 C 278.073 359.795,278.672 361.215,280.158 365.264 C 281.070 367.745,285.089 374.646,287.061 377.116 C 287.788 378.026,288.237 378.200,289.863 378.200 L 291.800 378.200 291.921 380.776 C 292.133 385.292,291.446 386.600,276.668 409.800 C 274.193 413.685,270.895 419.859,264.944 431.744 C 263.968 433.694,262.243 436.828,261.111 438.710 C 259.979 440.592,257.040 446.647,254.582 452.166 C 252.123 457.684,249.189 463.920,248.061 466.023 C 246.934 468.125,245.493 471.275,244.859 473.023 C 241.198 483.111,237.034 490.847,232.826 495.375 C 231.586 496.709,229.867 498.880,229.005 500.200 C 228.144 501.520,226.665 503.621,225.719 504.870 C 224.774 506.118,224.000 507.333,224.000 507.570 C 224.000 507.874,235.658 508.000,263.792 508.000 L 303.585 508.000 303.827 506.900 C 303.961 506.295,304.099 505.679,304.135 505.532 C 304.171 505.385,305.097 504.665,306.194 503.932 C 307.290 503.199,309.089 501.430,310.190 500.000 C 311.292 498.570,313.884 495.780,315.949 493.800 C 319.513 490.384,321.927 487.266,326.698 479.912 C 327.852 478.133,329.485 475.761,330.327 474.639 C 332.167 472.188,336.881 464.849,339.041 461.074 C 339.898 459.574,342.029 456.154,343.776 453.474 C 345.523 450.793,348.202 446.260,349.728 443.400 C 351.254 440.540,353.695 435.990,355.152 433.289 C 356.608 430.588,358.112 427.798,358.492 427.089 C 359.530 425.158,360.702 424.319,361.652 424.828 C 362.629 425.351,364.000 424.945,364.000 424.133 C 364.000 423.604,364.930 421.834,369.327 414.000 C 372.225 408.837,373.320 399.415,371.705 393.532 C 370.892 390.571,370.793 372.791,371.562 367.800 C 371.800 366.260,372.170 361.310,372.385 356.800 C 372.853 346.989,373.915 335.528,374.867 330.000 C 375.915 323.921,376.947 311.155,376.668 307.732 C 375.970 299.150,375.565 295.239,375.207 293.600 C 373.870 287.489,373.075 282.952,372.787 279.800 C 372.606 277.820,372.192 275.461,371.867 274.557 C 371.542 273.654,371.149 271.674,370.994 270.157 C 370.838 268.641,370.281 265.895,369.756 264.055 C 369.230 262.216,368.800 259.921,368.800 258.955 C 368.800 256.954,368.564 256.829,367.300 258.163 M201.938 262.310 C 197.183 264.553,197.125 271.205,201.860 271.199 C 206.426 271.193,208.902 264.142,204.994 262.278 C 203.313 261.476,203.717 261.472,201.938 262.310 M158.166 302.569 C 153.957 304.401,154.184 310.865,158.499 312.027 C 160.288 312.508,161.428 312.247,162.738 311.054 C 167.204 306.988,163.557 300.221,158.166 302.569 M102.093 355.600 C 102.093 356.370,102.175 356.685,102.276 356.300 C 102.376 355.915,102.376 355.285,102.276 354.900 C 102.175 354.515,102.093 354.830,102.093 355.600 M160.960 366.960 C 158.270 369.650,159.631 373.919,163.403 374.627 C 169.084 375.693,171.454 368.369,166.146 366.152 C 163.913 365.219,162.477 365.443,160.960 366.960 M170.966 426.169 C 166.181 428.252,167.297 436.400,172.367 436.400 C 175.769 436.400,177.600 434.466,177.600 430.874 C 177.600 427.152,174.218 424.753,170.966 426.169 M102.166 439.600 C 102.166 443.670,102.225 445.335,102.298 443.300 C 102.371 441.265,102.371 437.935,102.298 435.900 C 102.225 433.865,102.166 435.530,102.166 439.600 M102.893 466.800 C 102.893 467.570,102.975 467.885,103.076 467.500 C 103.176 467.115,103.176 466.485,103.076 466.100 C 102.975 465.715,102.893 466.030,102.893 466.800 M184.191 488.779 C 181.720 489.781,180.396 492.658,181.352 494.946 C 183.075 499.070,187.672 498.809,188.926 494.516 C 190.084 490.548,187.513 487.432,184.191 488.779 M102.531 501.800 C 102.533 503.340,102.605 503.921,102.692 503.091 C 102.779 502.261,102.777 501.001,102.689 500.291 C 102.600 499.581,102.529 500.260,102.531 501.800 M102.493 506.800 C 102.493 507.570,102.575 507.885,102.676 507.500 C 102.776 507.115,102.776 506.485,102.676 506.100 C 102.575 505.715,102.493 506.030,102.493 506.800 " stroke="none" fill="#f0f0f0" fill-rule="evenodd"/><path id="path1" d="M73.492 7.492 C 72.662 7.578,72.059 7.773,72.150 7.925 C 72.242 8.076,71.661 8.229,70.859 8.264 C 60.356 8.724,37.165 24.338,29.661 36.000 C 28.317 38.090,26.654 40.562,25.966 41.494 C 24.271 43.791,22.821 47.445,22.809 49.451 C 22.804 50.490,22.555 51.306,22.138 51.651 C 20.361 53.125,17.534 64.430,19.200 63.400 C 19.420 63.264,19.600 63.523,19.600 63.976 C 19.600 64.429,19.454 64.800,19.276 64.800 C 19.097 64.800,18.724 65.687,18.446 66.771 C 18.167 67.860,16.703 70.677,15.172 73.071 C 13.648 75.452,12.402 77.519,12.401 77.664 C 12.400 77.810,11.784 79.250,11.032 80.864 C 7.858 87.674,7.370 91.029,8.765 96.436 C 9.851 100.645,10.122 101.228,12.170 103.742 C 13.177 104.978,14.000 106.272,14.000 106.618 C 14.000 106.964,14.178 107.137,14.395 107.003 C 14.616 106.866,14.693 107.015,14.568 107.339 C 14.446 107.658,14.538 108.038,14.773 108.183 C 15.008 108.328,15.200 108.977,15.200 109.624 C 15.200 110.271,15.391 110.800,15.624 110.800 C 15.857 110.800,15.945 110.965,15.821 111.166 C 15.197 112.176,19.637 121.871,20.484 121.348 C 20.726 121.199,20.814 121.254,20.679 121.472 C 20.278 122.120,23.367 125.934,27.748 130.200 C 30.007 132.400,33.124 135.730,34.676 137.600 C 36.228 139.470,38.213 141.531,39.087 142.180 C 39.960 142.829,40.895 143.857,41.164 144.464 C 42.011 146.378,48.792 149.327,53.782 149.952 C 55.456 150.161,55.808 150.356,56.042 151.200 L 56.320 152.200 56.360 151.155 C 56.395 150.241,56.537 150.136,57.500 150.308 C 58.987 150.574,60.063 151.572,59.789 152.433 C 59.667 152.818,59.758 153.250,59.990 153.394 C 60.223 153.538,60.317 153.811,60.199 154.002 C 59.483 155.160,66.943 154.888,68.166 153.712 C 68.811 153.090,69.210 152.974,69.720 153.259 C 72.140 154.613,70.810 151.570,67.920 149.140 C 65.597 147.187,64.305 145.161,64.473 143.739 C 64.667 142.092,65.469 142.174,66.366 143.934 C 66.871 144.923,68.096 146.174,69.624 147.260 C 70.971 148.217,73.680 150.530,75.644 152.400 C 79.385 155.961,80.137 156.325,83.856 156.377 C 86.275 156.411,86.997 155.566,88.793 150.600 C 91.716 142.518,92.079 139.452,90.474 136.378 C 88.060 131.752,84.892 126.754,83.390 125.200 C 82.331 124.105,81.316 122.501,80.798 121.103 C 79.079 116.473,75.075 116.602,71.050 121.418 C 70.244 122.382,68.364 123.961,66.872 124.926 C 65.039 126.112,62.960 128.059,60.452 130.940 C 58.413 133.283,56.671 135.200,56.582 135.200 C 56.146 135.200,55.254 132.705,54.794 130.200 C 54.512 128.660,53.857 126.773,53.340 126.007 C 52.823 125.241,52.400 124.362,52.400 124.054 C 52.400 123.746,51.997 122.843,51.505 122.047 C 50.189 119.918,49.185 116.754,49.436 115.521 C 49.586 114.781,49.381 114.071,48.786 113.266 C 47.775 111.899,47.956 110.126,49.223 108.979 C 50.704 107.639,49.885 106.424,47.976 107.131 C 46.945 107.512,44.800 106.996,44.800 106.366 C 44.800 106.170,44.098 105.567,43.241 105.026 C 37.437 101.362,40.636 88.333,47.956 85.824 C 49.874 85.167,50.476 83.825,50.840 79.400 C 51.345 73.256,53.019 69.029,55.591 67.406 C 56.457 66.859,57.348 66.071,57.571 65.654 C 59.066 62.860,65.018 58.573,69.327 57.186 C 72.959 56.017,74.084 55.440,76.516 53.496 C 84.319 47.261,98.008 47.901,103.518 54.757 C 104.845 56.409,109.981 59.186,114.800 60.858 C 133.684 67.410,147.642 78.416,154.598 92.240 C 156.137 95.298,157.892 98.502,158.498 99.360 C 159.220 100.383,159.600 101.429,159.600 102.398 C 159.600 103.392,159.875 104.125,160.441 104.637 C 163.428 107.340,162.503 111.716,158.634 113.187 C 157.619 113.573,157.216 116.508,157.505 121.400 C 157.531 121.840,157.260 122.886,156.904 123.724 C 156.367 124.988,156.339 125.476,156.740 126.584 C 157.021 127.361,157.114 128.596,156.963 129.542 C 156.747 130.892,156.904 131.520,157.898 133.282 C 158.555 134.447,159.226 136.004,159.388 136.743 C 159.550 137.481,160.294 138.734,161.041 139.526 C 161.789 140.318,162.400 141.085,162.400 141.230 C 162.400 141.375,163.075 141.947,163.900 142.502 C 165.131 143.329,165.609 144.074,166.563 146.655 L 167.727 149.800 166.266 152.531 L 164.805 155.263 165.567 156.924 C 166.443 158.834,166.190 159.674,164.497 160.483 C 163.811 160.811,163.356 161.381,163.281 162.004 C 163.037 164.058,160.713 168.025,159.428 168.581 C 158.752 168.873,157.301 169.762,156.201 170.556 C 151.198 174.171,146.412 170.323,149.146 164.884 C 151.584 160.034,149.216 155.972,145.600 158.800 C 144.878 159.365,143.965 159.585,142.319 159.591 C 141.064 159.596,139.566 159.815,138.990 160.077 C 137.603 160.709,137.153 160.009,137.687 158.051 C 138.190 156.210,138.630 155.682,140.212 155.021 C 140.914 154.727,142.564 153.409,143.878 152.090 C 145.767 150.195,146.616 149.634,147.925 149.413 C 148.836 149.259,150.171 148.699,150.891 148.170 C 151.611 147.640,152.772 146.938,153.471 146.610 C 154.888 145.945,155.132 145.420,155.256 142.776 C 155.349 140.805,155.051 140.000,154.231 140.000 C 153.945 140.000,153.031 139.460,152.200 138.800 C 151.369 138.140,150.371 137.600,149.981 137.600 C 149.590 137.600,148.274 137.218,147.055 136.752 C 144.096 135.619,143.179 135.917,140.171 138.984 C 138.507 140.682,137.245 141.614,136.344 141.810 C 135.605 141.972,134.491 142.530,133.869 143.052 C 133.247 143.573,132.363 144.000,131.904 144.000 C 131.446 144.000,130.115 144.301,128.947 144.669 C 125.837 145.650,124.990 145.161,124.686 142.208 C 124.366 139.109,124.046 138.815,121.277 139.082 C 116.763 139.517,114.361 141.867,114.000 146.200 L 113.800 148.600 111.917 149.065 C 108.816 149.830,106.713 151.199,106.984 152.277 C 107.168 153.012,106.908 153.374,105.605 154.197 C 103.647 155.433,103.615 156.030,105.364 158.744 C 107.390 161.889,108.153 165.131,107.683 168.600 C 107.396 170.715,107.438 171.922,107.855 173.533 C 108.727 176.901,108.435 176.999,103.047 175.144 C 96.177 172.778,93.986 172.482,95.532 174.127 C 96.566 175.229,96.593 175.464,95.776 176.281 C 94.928 177.129,96.302 178.581,100.600 181.378 C 102.360 182.523,104.970 184.454,106.400 185.669 C 109.280 188.116,110.405 188.766,113.509 189.781 C 114.668 190.160,116.247 191.064,117.017 191.790 C 117.786 192.516,118.997 193.330,119.708 193.599 C 120.419 193.868,122.080 194.507,123.400 195.019 C 124.720 195.531,127.240 196.249,129.000 196.615 C 133.683 197.587,133.707 197.497,126.757 204.984 C 125.524 206.313,122.532 209.650,120.110 212.400 C 115.676 217.434,112.082 221.000,107.925 224.492 C 105.181 226.797,104.162 229.018,104.578 231.791 C 104.728 232.794,104.975 233.540,105.126 233.447 C 105.277 233.354,105.436 233.775,105.479 234.382 C 105.523 234.989,106.524 237.087,107.705 239.043 C 109.906 242.692,111.671 247.733,112.205 251.900 C 112.354 253.055,112.593 254.000,112.738 254.001 C 112.882 254.001,113.060 255.304,113.133 256.897 C 113.206 258.490,113.386 259.885,113.533 259.997 C 113.842 260.232,113.902 269.700,113.597 270.000 C 113.485 270.110,113.053 271.190,112.636 272.400 C 112.219 273.610,111.444 275.473,110.912 276.540 C 110.381 277.607,110.040 278.573,110.154 278.687 C 110.268 278.802,110.101 279.156,109.782 279.476 C 109.462 279.795,109.100 280.538,108.976 281.128 C 108.852 281.718,108.325 283.370,107.804 284.800 C 106.653 287.961,105.810 292.129,106.145 293.001 C 106.288 293.373,106.225 293.539,105.995 293.397 C 105.614 293.162,105.357 296.009,105.532 298.527 C 105.581 299.227,105.451 299.555,105.191 299.394 C 104.901 299.215,104.807 301.987,104.885 308.330 C 104.948 313.387,104.865 317.441,104.700 317.339 C 104.398 317.152,104.148 322.786,104.284 326.711 C 104.331 328.057,104.210 328.730,103.950 328.569 C 103.682 328.403,103.587 329.612,103.672 332.122 C 103.742 334.214,103.689 335.857,103.554 335.773 C 103.183 335.542,102.705 345.286,103.043 346.168 C 103.247 346.701,103.195 346.844,102.868 346.642 C 102.386 346.344,102.117 350.716,102.356 354.944 C 102.434 356.320,102.332 356.805,102.009 356.606 C 101.670 356.396,101.584 359.156,101.676 367.325 C 101.744 373.375,101.668 378.118,101.506 377.863 C 101.344 377.608,101.209 384.386,101.206 392.924 C 101.203 401.462,101.335 408.364,101.500 408.262 C 101.665 408.159,101.770 413.954,101.734 421.138 C 101.694 429.109,101.806 433.810,102.022 433.200 C 102.241 432.582,102.332 435.593,102.260 441.079 C 102.197 445.962,102.247 449.894,102.372 449.817 C 102.498 449.739,102.564 453.573,102.520 458.338 C 102.476 463.102,102.586 466.640,102.765 466.200 C 102.944 465.760,103.012 468.010,102.917 471.200 C 102.821 474.390,102.891 476.792,103.072 476.538 C 103.252 476.283,103.400 479.551,103.400 483.799 C 103.400 488.047,103.245 491.427,103.056 491.310 C 102.866 491.194,102.778 491.931,102.859 492.949 C 102.940 493.967,102.877 494.800,102.720 494.800 C 102.563 494.800,102.510 497.275,102.603 500.300 C 102.696 503.325,102.778 506.295,102.786 506.900 L 102.800 508.000 163.400 508.000 C 206.385 508.000,224.000 507.875,224.000 507.570 C 224.000 507.333,224.774 506.118,225.719 504.870 C 226.665 503.621,228.144 501.520,229.005 500.200 C 229.867 498.880,231.586 496.709,232.826 495.375 C 237.034 490.847,241.198 483.111,244.859 473.023 C 245.493 471.275,246.934 468.125,248.061 466.023 C 249.189 463.920,252.123 457.684,254.582 452.166 C 257.040 446.647,259.979 440.592,261.111 438.710 C 262.243 436.828,263.968 433.694,264.944 431.744 C 270.895 419.859,274.193 413.685,276.668 409.800 C 291.446 386.600,292.133 385.292,291.921 380.776 L 291.800 378.200 289.863 378.200 C 288.237 378.200,287.788 378.026,287.061 377.116 C 285.089 374.646,281.070 367.745,280.158 365.264 C 278.672 361.215,278.073 359.795,275.751 354.800 C 274.384 351.862,273.265 348.683,272.652 346.000 C 270.170 335.140,267.511 323.849,266.623 320.400 C 266.085 318.310,265.181 314.350,264.614 311.600 C 264.047 308.850,262.682 303.963,261.580 300.740 C 259.360 294.247,258.935 290.997,260.134 289.673 C 262.169 287.425,277.171 281.178,288.146 278.009 C 291.916 276.921,297.241 275.213,299.980 274.214 C 302.719 273.215,307.824 271.567,311.325 270.551 C 314.827 269.536,319.876 267.840,322.546 266.782 C 337.273 260.947,351.254 258.713,362.030 260.474 C 364.757 260.919,366.392 260.550,366.407 259.486 C 366.411 259.219,366.829 258.606,367.337 258.125 C 368.400 257.118,368.716 253.992,367.997 251.600 C 367.765 250.830,367.406 248.940,367.197 247.400 C 366.642 243.294,366.131 241.833,364.619 240.023 C 363.874 239.131,363.145 237.859,362.999 237.197 C 362.854 236.535,362.615 236.067,362.467 236.158 C 362.320 236.249,362.172 235.851,362.137 235.274 C 362.102 234.697,361.887 234.162,361.659 234.086 C 361.431 234.010,361.355 233.660,361.490 233.309 C 361.667 232.849,361.587 232.761,361.206 232.996 C 360.870 233.204,360.772 233.168,360.939 232.898 C 361.244 232.405,360.843 231.127,360.458 231.364 C 360.316 231.452,360.146 230.685,360.079 229.662 C 360.013 228.638,359.787 227.740,359.577 227.666 C 359.367 227.592,359.294 227.371,359.415 227.175 C 359.706 226.705,358.727 221.998,358.382 222.211 C 358.236 222.302,358.206 221.904,358.316 221.328 C 358.444 220.656,358.365 220.374,358.095 220.541 C 357.838 220.700,357.750 220.513,357.868 220.060 C 357.975 219.653,357.823 219.067,357.531 218.760 C 357.239 218.452,356.946 217.694,356.881 217.075 C 356.651 214.901,351.511 203.200,350.786 203.200 C 350.548 203.200,350.441 203.058,350.548 202.884 C 350.839 202.414,347.795 197.139,347.439 197.495 C 347.271 197.663,347.184 197.620,347.246 197.400 C 347.455 196.655,346.747 195.185,346.309 195.456 C 346.064 195.608,345.991 195.539,346.141 195.296 C 346.938 194.006,328.746 175.065,327.137 175.510 C 326.919 175.570,326.849 175.444,326.981 175.230 C 327.222 174.841,325.668 173.754,325.100 173.915 C 324.935 173.962,324.845 173.834,324.900 173.631 C 325.036 173.130,320.776 169.968,320.333 170.241 C 320.139 170.361,320.030 170.221,320.090 169.930 C 320.151 169.637,319.889 169.425,319.504 169.455 C 319.122 169.485,318.889 169.379,318.988 169.219 C 319.087 169.060,318.455 168.528,317.584 168.039 C 316.713 167.549,316.000 167.285,316.000 167.451 C 316.000 167.617,315.772 167.440,315.492 167.059 C 315.213 166.677,314.595 166.335,314.120 166.299 C 313.644 166.263,313.323 166.125,313.405 165.992 C 313.649 165.598,305.178 162.368,304.668 162.661 C 304.410 162.808,304.338 162.776,304.507 162.590 C 304.970 162.081,295.358 159.072,294.614 159.494 C 294.386 159.623,294.318 159.596,294.463 159.434 C 294.839 159.014,287.268 155.111,286.726 155.445 C 286.464 155.607,286.387 155.545,286.541 155.295 C 286.889 154.732,281.868 153.056,280.573 153.303 C 280.038 153.405,279.600 153.309,279.600 153.090 C 279.600 152.844,278.604 152.770,277.005 152.899 C 275.280 153.037,274.495 152.969,274.665 152.696 C 274.825 152.436,274.527 152.359,273.859 152.487 C 273.277 152.598,272.800 152.534,272.800 152.345 C 272.800 152.155,272.114 152.000,271.275 152.000 C 270.437 152.000,268.365 151.637,266.671 151.193 C 264.869 150.721,263.154 150.497,262.536 150.652 C 261.862 150.821,261.572 150.770,261.732 150.509 C 261.959 150.143,258.942 149.740,254.000 149.475 C 253.230 149.434,252.502 149.269,252.382 149.110 C 252.263 148.950,251.334 148.770,250.319 148.710 C 249.304 148.649,248.550 148.522,248.644 148.427 C 248.949 148.115,246.329 147.197,245.897 147.464 C 245.651 147.616,245.595 147.532,245.762 147.262 C 246.032 146.825,245.878 146.734,244.700 146.640 C 244.425 146.618,244.110 146.489,244.000 146.352 C 243.522 145.761,239.668 144.062,239.385 144.318 C 239.213 144.473,239.186 144.399,239.326 144.154 C 239.898 143.151,234.487 138.679,233.086 138.998 C 229.900 139.722,229.982 139.926,230.532 132.600 C 230.797 129.079,228.371 124.967,226.350 125.510 C 226.125 125.570,226.046 125.449,226.175 125.240 C 226.491 124.728,222.046 123.098,220.920 123.313 C 220.427 123.407,220.112 123.343,220.219 123.169 C 220.326 122.996,219.916 122.797,219.307 122.727 C 218.305 122.612,218.175 122.410,217.935 120.600 C 217.183 114.939,214.726 111.054,211.581 110.551 C 210.364 110.356,209.825 110.021,209.398 109.196 C 209.063 108.549,208.165 107.833,207.207 107.450 C 205.230 106.658,203.825 106.587,204.253 107.300 C 204.589 107.859,204.518 107.812,201.658 105.567 L 199.917 104.200 191.823 104.200 L 183.729 104.200 183.648 106.206 L 183.566 108.212 193.283 117.643 C 204.623 128.649,204.498 128.480,203.074 130.910 C 202.506 131.879,201.599 133.848,201.058 135.285 C 198.770 141.364,191.704 150.264,190.289 148.849 C 190.042 148.602,189.088 148.400,188.169 148.400 C 185.517 148.400,184.374 145.542,184.709 139.747 C 184.849 137.324,184.747 136.279,184.300 135.559 C 183.935 134.972,183.517 132.508,183.220 129.200 C 182.953 126.230,182.569 123.385,182.366 122.877 C 182.125 122.276,182.150 121.667,182.437 121.131 C 182.916 120.236,182.808 119.264,181.889 116.200 C 180.655 112.086,179.628 109.981,177.014 106.206 C 175.537 104.072,174.069 101.758,173.752 101.063 C 173.435 100.369,172.376 98.720,171.400 97.400 C 168.586 93.596,168.265 92.478,170.119 92.944 C 171.360 93.255,173.076 94.989,174.068 96.934 C 174.908 98.581,174.799 98.557,178.656 97.940 C 179.076 97.872,179.608 95.199,180.197 90.200 C 180.327 89.100,180.248 87.300,180.022 86.200 C 179.796 85.100,178.995 81.192,178.241 77.515 C 176.691 69.956,175.245 66.436,172.195 62.800 C 171.180 61.590,169.988 59.970,169.548 59.200 C 169.107 58.430,168.251 56.942,167.645 55.894 C 167.040 54.846,166.393 54.126,166.208 54.294 C 166.023 54.462,165.991 54.392,166.137 54.137 C 166.808 52.963,157.202 43.344,150.422 38.400 C 148.159 36.750,144.753 34.127,142.854 32.571 C 140.954 31.016,138.590 29.192,137.600 28.518 C 136.610 27.844,135.461 26.916,135.047 26.456 C 134.632 25.996,134.109 25.732,133.885 25.871 C 133.660 26.010,133.588 25.943,133.724 25.723 C 134.045 25.204,131.851 23.092,131.408 23.494 C 131.223 23.662,131.185 23.602,131.323 23.359 C 131.832 22.465,126.135 17.893,120.800 14.912 C 117.124 12.859,114.747 12.016,104.800 9.235 C 99.048 7.627,81.540 6.652,73.492 7.492 M157.282 71.616 C 160.066 72.389,161.197 75.061,159.600 77.091 C 159.007 77.845,158.800 78.714,158.800 80.454 C 158.800 83.454,158.304 83.483,155.703 80.637 C 152.500 77.132,151.608 74.456,153.192 73.100 C 153.641 72.715,153.882 72.158,153.749 71.811 C 153.465 71.072,155.014 70.986,157.282 71.616 M165.000 75.705 C 165.873 77.519,166.218 78.855,166.268 80.600 C 166.374 84.360,166.710 87.061,167.171 87.863 C 169.329 91.618,168.717 92.766,165.751 90.528 C 161.781 87.532,158.506 83.200,160.210 83.200 C 161.096 83.200,161.668 81.329,161.377 79.387 C 161.169 77.996,161.305 77.417,162.162 76.060 C 162.733 75.156,163.200 74.142,163.200 73.808 C 163.200 72.601,163.823 73.257,165.000 75.705 M111.400 75.945 C 104.382 78.513,95.136 87.881,90.736 96.882 C 89.908 98.578,88.372 101.368,87.324 103.082 C 83.554 109.252,85.692 113.163,91.520 110.755 C 92.814 110.220,92.866 110.239,94.120 111.720 C 97.392 115.580,101.831 115.813,108.000 112.448 C 113.664 109.358,118.268 103.330,114.700 103.674 C 111.891 103.946,113.557 98.767,118.311 92.453 C 122.436 86.973,122.404 85.779,118.132 85.826 C 115.530 85.854,113.682 86.657,109.069 89.762 C 102.129 94.432,103.518 88.243,111.014 81.093 C 116.434 75.924,116.574 74.052,111.400 75.945 M76.600 142.400 C 76.600 143.147,76.361 143.434,75.654 143.534 C 74.430 143.707,73.850 143.104,74.195 142.017 C 74.610 140.707,76.600 141.024,76.600 142.400 M117.612 145.578 C 117.383 146.005,117.017 146.466,116.798 146.601 C 116.234 146.950,116.302 145.858,116.880 145.280 C 117.627 144.533,118.074 144.715,117.612 145.578 M79.626 147.214 C 80.544 147.705,80.646 149.298,79.805 149.996 C 78.339 151.212,75.591 148.857,76.790 147.412 C 77.379 146.702,78.521 146.623,79.626 147.214 M128.400 171.220 C 128.400 171.671,128.131 172.559,127.803 173.195 C 127.037 174.675,127.279 175.241,129.435 177.008 C 131.224 178.473,131.679 179.761,130.740 180.700 C 130.488 180.952,130.170 181.843,130.036 182.680 C 129.698 184.773,128.101 184.966,125.672 183.206 C 124.737 182.529,123.442 181.868,122.795 181.739 C 120.886 181.357,120.630 180.702,121.625 178.751 C 122.105 177.811,122.643 175.864,122.822 174.426 C 123.214 171.259,124.030 170.400,126.644 170.400 C 128.148 170.400,128.400 170.518,128.400 171.220 M169.361 244.055 C 172.692 245.573,170.114 250.794,166.031 250.799 C 161.882 250.803,162.251 245.461,166.494 244.100 C 168.252 243.537,168.224 243.537,169.361 244.055 M204.994 262.278 C 208.902 264.142,206.426 271.193,201.860 271.199 C 197.125 271.205,197.183 264.553,201.938 262.310 C 203.717 261.472,203.313 261.476,204.994 262.278 M161.930 302.435 C 164.322 303.270,165.503 306.688,164.238 309.120 C 161.622 314.147,155.200 312.833,155.200 307.270 C 155.200 303.541,158.434 301.217,161.930 302.435 M166.146 366.152 C 171.454 368.369,169.084 375.693,163.403 374.627 C 159.631 373.919,158.270 369.650,160.960 366.960 C 162.477 365.443,163.913 365.219,166.146 366.152 M360.030 425.106 C 359.565 425.488,358.873 426.380,358.492 427.089 C 358.112 427.798,356.608 430.588,355.152 433.289 C 353.695 435.990,351.254 440.540,349.728 443.400 C 348.202 446.260,345.523 450.793,343.776 453.474 C 342.029 456.154,339.898 459.574,339.041 461.074 C 336.881 464.849,332.167 472.188,330.327 474.639 C 329.485 475.761,327.852 478.133,326.698 479.912 C 321.920 487.277,319.512 490.385,315.940 493.800 C 313.869 495.780,311.327 498.522,310.292 499.894 C 308.664 502.052,307.476 503.135,304.691 505.000 C 304.363 505.220,303.987 505.985,303.857 506.700 L 303.620 508.000 344.410 508.000 L 385.200 508.000 385.200 506.528 C 385.200 504.969,384.885 503.787,383.353 499.590 C 382.829 498.155,382.394 496.445,382.387 495.790 C 382.379 495.136,381.738 492.980,380.962 491.000 C 378.824 485.549,376.443 478.906,375.585 476.000 C 374.142 471.113,372.295 465.402,371.509 463.400 C 371.077 462.300,370.038 459.690,369.199 457.600 C 366.225 450.187,364.359 441.913,364.239 435.600 C 364.023 424.273,364.067 424.725,363.215 424.995 C 362.783 425.132,362.080 425.057,361.652 424.828 C 361.057 424.509,360.676 424.575,360.030 425.106 M174.650 426.251 C 179.868 428.727,178.142 436.400,172.367 436.400 C 167.297 436.400,166.181 428.252,170.966 426.169 C 172.582 425.465,173.015 425.474,174.650 426.251 M187.785 489.300 C 191.752 492.769,187.117 500.367,183.005 497.133 C 180.621 495.257,180.269 492.750,182.091 490.618 C 184.131 488.229,186.052 487.785,187.785 489.300 " stroke="none" fill="#131313" fill-rule="evenodd"/></g></svg>